<svg xmlns="http://www.w3.org/2000/svg" width="264" height="69" viewBox="0 0 264 69">
    <g fill="#1A1919" fill-rule="evenodd">
        <path d="M0 5.4L50 5.4 50 .4 0 .4zM0 23.4L50 23.4 50 18.4 0 18.4zM0 41.4L50 41.4 50 36.4 0 36.4zM0 59.4L50 59.4 50 54.4 0 54.4zM18 14.4L68 14.4 68 9.4 18 9.4zM18 32.4L68 32.4 68 27.4 18 27.4zM18 50.4L68 50.4 68 45.4 18 45.4zM18 68.4L68 68.4 68 63.4 18 63.4zM104.681.494h-4.818v8.978h-9.03V.494H86V23.4h4.834v-9.887h9.029V23.4h4.818V.494zM132.896 23.4l-8.078-23h-5.91l-8.046 23h5.208l1.653-5.453h8.31l1.654 5.453h5.21zm-13.956-9.526c1.621-5.275 2.604-8.58 2.946-9.917.084.376.22.887.414 1.535.192.648 1.053 3.442 2.58 8.382h-5.94zM166 .494h-4.756l-2.9 12.503c-.188.752-.395 1.736-.625 2.953-.228 1.217-.394 2.233-.498 3.048-.115-.847-.281-1.86-.5-3.04-.216-1.18-.4-2.058-.545-2.632L152.856.494h-4.57l-3.32 12.832c-.199.689-.41 1.658-.633 2.906-.225 1.248-.366 2.17-.428 2.766-.23-1.693-.6-3.693-1.109-6.001L139.881.494h-4.757l5.818 22.906h5.488l3.073-12.002c.135-.533.327-1.423.576-2.671.25-1.248.406-2.154.467-2.718.042.46.2 1.36.476 2.703.277 1.342.47 2.227.585 2.656l3.089 12.032h5.504L166 .494zM105.536 36.721h-4.78v8.769h-8.96V36.72H87v22.373h4.796v-9.657h8.96v9.657h4.78V36.72zm27.997 22.373l-8.016-22.464h-5.864l-7.983 22.464h5.167l1.64-5.326h8.247l1.64 5.326h5.17zm-13.848-9.304c1.608-5.152 2.583-8.381 2.924-9.686.083.367.218.867.41 1.5.19.632 1.044 3.36 2.56 8.186h-5.894zm33.956 9.304l5.833-17.522h.14c-.124 2.816-.193 4.55-.21 5.204-.014.653-.022 1.228-.022 1.728v10.59h4.47V36.72h-6.528l-5.68 17.109h-.093l-5.353-17.109h-6.53v22.373h4.288V48.688c0-1.194-.099-3.576-.296-7.146h.14l5.447 17.552h4.394zm18.676 0h8.463c2.56 0 4.583-.571 6.073-1.714 1.49-1.143 2.236-2.734 2.236-4.774 0-1.44-.317-2.592-.95-3.46-.636-.866-1.67-1.458-3.103-1.774v-.153c1.05-.173 1.895-.69 2.53-1.546.634-.857.95-1.953.95-3.29 0-1.968-.723-3.405-2.174-4.307-1.448-.903-3.776-1.355-6.986-1.355h-7.04v22.373zm4.797-18.486h2.521c1.373 0 2.376.187 3.01.558.635.373.951.988.951 1.844 0 .919-.291 1.577-.875 1.975-.58.398-1.523.597-2.822.597h-2.785v-4.974zm2.97 8.738c2.683 0 4.024.929 4.024 2.786 0 1.03-.317 1.795-.945 2.295-.628.5-1.605.749-2.924.749h-3.125v-5.83h2.97zm29.96-12.625v13.666c0 1.734-.354 3.007-1.06 3.819-.707.81-1.844 1.216-3.412 1.216-1.62 0-2.78-.404-3.481-1.21-.702-.806-1.053-2.07-1.053-3.795V36.721h-4.781v14.415c0 2.561.804 4.579 2.414 6.052 1.61 1.474 3.87 2.212 6.777 2.212 1.93 0 3.6-.332 5.015-.995 1.412-.663 2.492-1.616 3.24-2.862.749-1.244 1.12-2.693 1.12-4.345V36.72h-4.779zm17.892 3.887h1.456c1.547 0 2.688.224 3.426.674.737.448 1.107 1.203 1.107 2.265 0 1.07-.362 1.856-1.084 2.356-.722.5-1.842.75-3.357.75h-1.548v-6.045zm2.554 9.901l5.4 8.585h5.322c-1.032-1.47-3.248-4.719-6.654-9.748 1.343-.581 2.379-1.385 3.112-2.41.731-1.025 1.098-2.196 1.098-3.512 0-2.254-.738-3.936-2.214-5.042-1.473-1.107-3.749-1.66-6.823-1.66h-6.592v22.372h4.797v-8.585h2.554zm24.537-.03h4.285v4.666c-1.03.205-2.047.307-3.047.307-1.92 0-3.381-.64-4.387-1.92-1.006-1.28-1.51-3.135-1.51-5.563 0-2.326.626-4.178 1.874-5.555 1.247-1.377 2.908-2.066 4.982-2.066 1.784 0 3.503.408 5.153 1.224l1.593-3.795c-2.156-.918-4.394-1.377-6.716-1.377-3.703 0-6.599 1.01-8.687 3.03-2.09 2.02-3.135 4.835-3.135 8.447 0 3.713.9 6.562 2.702 8.547 1.8 1.983 4.407 2.976 7.82 2.976 1.342 0 2.655-.095 3.939-.283 1.284-.19 2.654-.518 4.107-.988v-11.6h-8.973v3.95z"/>
    </g>
</svg>
